<?xml version="1.0" encoding="iso-8859-1"?>
<!-- Generator: Adobe Illustrator 16.0.0, SVG Export Plug-In . SVG Version: 6.00 Build 0)  -->
<!DOCTYPE svg PUBLIC "-//W3C//DTD SVG 1.1//EN" "http://www.w3.org/Graphics/SVG/1.1/DTD/svg11.dtd">
<svg version="1.1" id="Capa_1" xmlns="http://www.w3.org/2000/svg" xmlns:xlink="http://www.w3.org/1999/xlink" x="0px" y="0px"
	 width="611.991px" height="611.991px" viewBox="0 0 611.991 611.991" style="enable-background:new 0 0 611.991 611.991;"
	 xml:space="preserve">
<g>
	<g>
		<g>
			<path d="M467.31,0h-8.129c-29.967,0-81.244,14.018-83.357,66.481c-2.445,60.358-2.858,107.05-3.229,148.248
				c-0.242,27.783-0.478,54.02-1.313,80.571c-0.963,31.029,23.484,53.084,33.357,60.709l-15.187,196.54l-0.055,0.755l0.082,0.737
				c2.463,23.036,20.805,38.708,24.168,41.387c11.158,11.132,20.914,16.563,29.807,16.563c14.306,0,20.681-13.729,22.056-20.985
				l2.166-582.887L467.31,0z M449.47,588.56c-0.494,1.755-2.312,7.257-6.015,7.257c-1.996,0-7.805-1.179-18.686-12.139l-0.863-0.756
				c-0.16-0.126-16.021-12.568-18.26-29.887l15.852-205.063l-4.01-2.616c-0.315-0.206-30.922-20.526-30.031-49.542
				c0.836-26.731,1.07-53.048,1.313-80.939c0.369-41.072,0.781-87.629,3.219-147.745c1.646-40.704,41.494-48.921,59.469-50.54
				L449.47,588.56z"/>
			<circle cx="428.628" cy="542.39" r="13.271"/>
			<path d="M291.764,29.042c0.009-3.965-3.209-7.202-7.184-7.202h-0.009c-3.965,0-7.193,3.21-7.193,7.184l-0.144,147.007
				c0.153,2.005,3.111,48.84-36.945,58.272l-6.923,0.863c-3.668,0.44-6.402,3.614-6.312,7.301l7.993,332.749
				c0.009,0.054,0.333,5.548-3.21,9.359c-2.751,2.932-7.391,4.424-13.792,4.424c-7.337,0-12.615-1.654-15.681-4.918
				c-3.507-3.74-3.219-8.829-3.192-9.234l9.863-332.344c0.108-3.704-2.625-6.887-6.312-7.337l-6.15-0.719
				c-40.623-9.521-37.853-56.42-37.691-58.938l-0.189-146.486c0-3.965-3.219-7.184-7.193-7.184l0,0
				c-3.965,0-7.193,3.228-7.184,7.202l0.189,145.928c-1.546,21.093,6.645,63.586,49.542,73.603l0.414,0.054l-9.639,325.349
				c-0.108,1.144-0.792,11.349,6.833,19.691c5.88,6.446,14.772,9.71,26.407,9.71c10.682,0,18.917-3.093,24.51-9.197
				c7.678-8.416,6.95-19.017,6.869-19.719l-7.812-325.86l1.214-0.144c42.124-9.891,50.324-52.383,48.796-72.929L291.764,29.042z"/>
			<path d="M183.427,187.378c3.965,0,7.193-3.228,7.193-7.202V29.042c0-3.965-3.219-7.202-7.193-7.202
				c-3.974,0-7.193,3.228-7.193,7.202v151.134C176.244,184.141,179.462,187.378,183.427,187.378z"/>
			<path d="M217.378,187.378c3.965,0,7.193-3.228,7.193-7.202V29.042c0-3.965-3.219-7.202-7.193-7.202s-7.193,3.228-7.193,7.202
				v151.134C210.186,184.141,213.404,187.378,217.378,187.378z"/>
			<path d="M251.32,187.378c3.965,0,7.193-3.228,7.193-7.202V29.042c0-3.965-3.219-7.202-7.193-7.202
				c-3.974,0-7.193,3.228-7.193,7.202v151.134C244.127,184.141,247.355,187.378,251.32,187.378z"/>
		</g>
	</g>
</g>
<g>
</g>
<g>
</g>
<g>
</g>
<g>
</g>
<g>
</g>
<g>
</g>
<g>
</g>
<g>
</g>
<g>
</g>
<g>
</g>
<g>
</g>
<g>
</g>
<g>
</g>
<g>
</g>
<g>
</g>
</svg>
